<svg data-v-423bf9ae="" xmlns="http://www.w3.org/2000/svg" viewBox="0 0 566 90" class="iconLeft"><!----><!----><!----><g data-v-423bf9ae="" id="3a042d73-3cd5-4bbf-9821-237591a48924" fill="white" transform="matrix(4.1039674680923515,0,0,4.1039674680923515,221.15852790682263,3.9603267991635107)"><path d="M4.03 12.58L4.03 12.58L4.03 12.58Q4.44 12.58 4.80 12.47L4.80 12.47L4.80 12.47Q5.15 12.37 5.41 12.17L5.41 12.17L5.41 12.17Q5.67 11.98 5.81 11.69L5.81 11.69L5.81 11.69Q5.96 11.41 5.96 11.05L5.96 11.05L5.96 11.05Q5.96 10.63 5.76 10.34L5.76 10.34L5.76 10.34Q5.56 10.04 5.22 9.82L5.22 9.82L5.22 9.82Q4.89 9.60 4.46 9.42L4.46 9.42L4.46 9.42Q4.04 9.24 3.60 9.06L3.60 9.06L3.60 9.06Q3.16 8.87 2.73 8.65L2.73 8.65L2.73 8.65Q2.31 8.43 1.98 8.12L1.98 8.12L1.98 8.12Q1.64 7.81 1.44 7.38L1.44 7.38L1.44 7.38Q1.24 6.95 1.24 6.34L1.24 6.34L1.24 6.34Q1.24 5.67 1.49 5.15L1.49 5.15L1.49 5.15Q1.74 4.62 2.20 4.25L2.20 4.25L2.20 4.25Q2.66 3.88 3.29 3.69L3.29 3.69L3.29 3.69Q3.93 3.49 4.70 3.49L4.70 3.49L4.70 3.49Q4.92 3.49 5.22 3.51L5.22 3.51L5.22 3.51Q5.51 3.53 5.84 3.58L5.84 3.58L5.84 3.58Q6.18 3.62 6.55 3.69L6.55 3.69L6.55 3.69Q6.91 3.77 7.28 3.88L7.28 3.88L7.01 5.20L6.88 5.27L6.88 5.27Q6.52 5.11 6.18 5.00L6.18 5.00L6.18 5.00Q5.84 4.89 5.53 4.82L5.53 4.82L5.53 4.82Q5.22 4.75 4.96 4.72L4.96 4.72L4.96 4.72Q4.70 4.70 4.50 4.70L4.50 4.70L4.50 4.70Q4.12 4.70 3.81 4.79L3.81 4.79L3.81 4.79Q3.51 4.87 3.29 5.04L3.29 5.04L3.29 5.04Q3.08 5.22 2.96 5.47L2.96 5.47L2.96 5.47Q2.84 5.71 2.84 6.04L2.84 6.04L2.84 6.04Q2.84 6.47 3.04 6.77L3.04 6.77L3.04 6.77Q3.25 7.08 3.58 7.31L3.58 7.31L3.58 7.31Q3.91 7.54 4.34 7.72L4.34 7.72L4.34 7.72Q4.76 7.90 5.21 8.09L5.21 8.09L5.21 8.09Q5.66 8.28 6.09 8.50L6.09 8.50L6.09 8.50Q6.51 8.72 6.85 9.02L6.85 9.02L6.85 9.02Q7.18 9.32 7.38 9.72L7.38 9.72L7.38 9.72Q7.59 10.13 7.59 10.70L7.59 10.70L7.59 10.70Q7.59 11.33 7.32 11.89L7.32 11.89L7.32 11.89Q7.05 12.46 6.57 12.88L6.57 12.88L6.57 12.88Q6.08 13.30 5.39 13.54L5.39 13.54L5.39 13.54Q4.71 13.78 3.87 13.78L3.87 13.78L3.87 13.78Q3.53 13.78 3.15 13.74L3.15 13.74L3.15 13.74Q2.78 13.69 2.39 13.61L2.39 13.61L2.39 13.61Q2.00 13.53 1.61 13.41L1.61 13.41L1.61 13.41Q1.23 13.28 0.88 13.13L0.88 13.13L1.15 11.79L1.29 11.72L1.29 11.72Q2.01 12.11 2.70 12.35L2.70 12.35L2.70 12.35Q3.39 12.58 4.03 12.58ZM9.60 13.64L9.60 6.40L11.26 6.40L11.26 13.64L9.60 13.64ZM10.42 4.97L10.42 4.97L10.42 4.97Q10.21 4.97 10.02 4.90L10.02 4.90L10.02 4.90Q9.84 4.83 9.71 4.70L9.71 4.70L9.71 4.70Q9.58 4.58 9.51 4.41L9.51 4.41L9.51 4.41Q9.43 4.24 9.43 4.04L9.43 4.04L9.43 4.04Q9.43 3.83 9.51 3.66L9.51 3.66L9.51 3.66Q9.59 3.49 9.73 3.35L9.73 3.35L9.73 3.35Q9.87 3.22 10.06 3.14L10.06 3.14L10.06 3.14Q10.25 3.07 10.47 3.07L10.47 3.07L10.47 3.07Q10.68 3.07 10.86 3.14L10.86 3.14L10.86 3.14Q11.03 3.22 11.16 3.35L11.16 3.35L11.16 3.35Q11.29 3.47 11.37 3.65L11.37 3.65L11.37 3.65Q11.44 3.82 11.44 4.02L11.44 4.02L11.44 4.02Q11.44 4.22 11.36 4.40L11.36 4.40L11.36 4.40Q11.29 4.57 11.15 4.70L11.15 4.70L11.15 4.70Q11.01 4.83 10.82 4.90L10.82 4.90L10.82 4.90Q10.64 4.97 10.42 4.97ZM13.56 13.64L13.56 6.40L14.90 6.40L15.13 7.64L15.13 7.64Q15.37 7.42 15.66 7.17L15.66 7.17L15.66 7.17Q15.96 6.93 16.30 6.73L16.30 6.73L16.30 6.73Q16.64 6.53 17.00 6.40L17.00 6.40L17.00 6.40Q17.37 6.26 17.74 6.26L17.74 6.26L17.74 6.26Q18.07 6.26 18.38 6.37L18.38 6.37L18.38 6.37Q18.68 6.47 18.94 6.66L18.94 6.66L18.94 6.66Q19.20 6.84 19.40 7.10L19.40 7.10L19.40 7.10Q19.60 7.36 19.71 7.66L19.71 7.66L19.71 7.66Q19.97 7.44 20.27 7.19L20.27 7.19L20.27 7.19Q20.56 6.94 20.90 6.73L20.90 6.73L20.90 6.73Q21.23 6.53 21.60 6.40L21.60 6.40L21.60 6.40Q21.98 6.26 22.40 6.26L22.40 6.26L22.40 6.26Q22.91 6.26 23.31 6.46L23.31 6.46L23.31 6.46Q23.71 6.66 24.00 7.00L24.00 7.00L24.00 7.00Q24.28 7.35 24.44 7.82L24.44 7.82L24.44 7.82Q24.59 8.29 24.59 8.83L24.59 8.83L24.59 13.64L22.93 13.64L22.93 9.02L22.93 9.02Q22.93 8.33 22.58 7.93L22.58 7.93L22.58 7.93Q22.23 7.53 21.64 7.53L21.64 7.53L21.64 7.53Q21.40 7.53 21.17 7.60L21.17 7.60L21.17 7.60Q20.95 7.67 20.74 7.80L20.74 7.80L20.74 7.80Q20.53 7.92 20.32 8.10L20.32 8.10L20.32 8.10Q20.10 8.28 19.88 8.48L19.88 8.48L19.88 8.48Q19.89 8.57 19.89 8.65L19.89 8.65L19.89 8.65Q19.89 8.73 19.89 8.83L19.89 8.83L19.89 13.64L18.24 13.64L18.24 9.02L18.24 9.02Q18.24 8.67 18.14 8.40L18.14 8.40L18.14 8.40Q18.05 8.12 17.88 7.93L17.88 7.93L17.88 7.93Q17.71 7.73 17.47 7.63L17.47 7.63L17.47 7.63Q17.23 7.53 16.94 7.53L16.94 7.53L16.94 7.53Q16.70 7.53 16.48 7.60L16.48 7.60L16.48 7.60Q16.26 7.67 16.05 7.80L16.05 7.80L16.05 7.80Q15.85 7.92 15.64 8.09L15.64 8.09L15.64 8.09Q15.43 8.26 15.21 8.47L15.21 8.47L15.21 13.64L13.56 13.64ZM28.57 8.48L28.57 12.31L28.57 12.31Q28.74 12.39 28.93 12.45L28.93 12.45L28.93 12.45Q29.13 12.50 29.31 12.54L29.31 12.54L29.31 12.54Q29.50 12.57 29.67 12.58L29.67 12.58L29.67 12.58Q29.84 12.60 29.96 12.60L29.96 12.60L29.96 12.60Q30.49 12.60 30.91 12.39L30.91 12.39L30.91 12.39Q31.34 12.18 31.64 11.82L31.64 11.82L31.64 11.82Q31.94 11.46 32.10 10.99L32.10 10.99L32.10 10.99Q32.26 10.51 32.26 9.96L32.26 9.96L32.26 9.96Q32.26 9.45 32.13 9.00L32.13 9.00L32.13 9.00Q31.99 8.56 31.75 8.23L31.75 8.23L31.75 8.23Q31.51 7.90 31.17 7.71L31.17 7.71L31.17 7.71Q30.83 7.53 30.42 7.53L30.42 7.53L30.42 7.53Q29.93 7.53 29.45 7.79L29.45 7.79L29.45 7.79Q28.98 8.05 28.57 8.48L28.57 8.48ZM28.24 6.40L28.49 7.62L28.49 7.62Q28.73 7.38 29.02 7.14L29.02 7.14L29.02 7.14Q29.31 6.90 29.64 6.71L29.64 6.71L29.64 6.71Q29.97 6.51 30.35 6.39L30.35 6.39L30.35 6.39Q30.73 6.26 31.16 6.26L31.16 6.26L31.16 6.26Q31.82 6.26 32.34 6.55L32.34 6.55L32.34 6.55Q32.87 6.84 33.23 7.32L33.23 7.32L33.23 7.32Q33.59 7.81 33.79 8.43L33.79 8.43L33.79 8.43Q33.98 9.06 33.98 9.72L33.98 9.72L33.98 9.72Q33.98 10.60 33.66 11.34L33.66 11.34L33.66 11.34Q33.34 12.09 32.79 12.63L32.79 12.63L32.79 12.63Q32.23 13.17 31.49 13.48L31.49 13.48L31.49 13.48Q30.74 13.78 29.90 13.78L29.90 13.78L29.90 13.78Q29.74 13.78 29.56 13.77L29.56 13.77L29.56 13.77Q29.37 13.76 29.20 13.74L29.20 13.74L29.20 13.74Q29.03 13.72 28.86 13.69L28.86 13.69L28.86 13.69Q28.70 13.66 28.57 13.62L28.57 13.62L28.57 17.31L26.91 17.31L26.91 6.40L28.24 6.40ZM35.83 13.64L35.83 2.69L37.48 2.69L37.48 13.64L35.83 13.64ZM45.69 12.15L45.69 12.98L45.69 12.98Q45.39 13.19 45.04 13.34L45.04 13.34L45.04 13.34Q44.69 13.49 44.32 13.59L44.32 13.59L44.32 13.59Q43.96 13.69 43.59 13.74L43.59 13.74L43.59 13.74Q43.22 13.78 42.90 13.78L42.90 13.78L42.90 13.78Q42.14 13.78 41.48 13.55L41.48 13.55L41.48 13.55Q40.83 13.32 40.35 12.87L40.35 12.87L40.35 12.87Q39.87 12.41 39.59 11.75L39.59 11.75L39.59 11.75Q39.32 11.09 39.32 10.24L39.32 10.24L39.32 10.24Q39.32 9.33 39.63 8.59L39.63 8.59L39.63 8.59Q39.94 7.85 40.45 7.34L40.45 7.34L40.45 7.34Q40.97 6.82 41.65 6.54L41.65 6.54L41.65 6.54Q42.33 6.26 43.07 6.26L43.07 6.26L43.07 6.26Q43.68 6.26 44.21 6.46L44.21 6.46L44.21 6.46Q44.74 6.67 45.13 7.06L45.13 7.06L45.13 7.06Q45.51 7.46 45.73 8.05L45.73 8.05L45.73 8.05Q45.95 8.65 45.95 9.43L45.95 9.43L45.95 9.43Q45.95 9.63 45.93 9.84L45.93 9.84L45.93 9.84Q45.92 10.06 45.88 10.26L45.88 10.26L41.04 10.26L41.04 10.26Q41.04 10.81 41.23 11.24L41.23 11.24L41.23 11.24Q41.43 11.66 41.78 11.95L41.78 11.95L41.78 11.95Q42.14 12.23 42.64 12.38L42.64 12.38L42.64 12.38Q43.13 12.52 43.74 12.52L43.74 12.52L43.74 12.52Q43.91 12.52 44.14 12.51L44.14 12.51L44.14 12.51Q44.37 12.50 44.63 12.46L44.63 12.46L44.63 12.46Q44.88 12.41 45.16 12.34L45.16 12.34L45.16 12.34Q45.43 12.27 45.69 12.15L45.69 12.15ZM41.04 9.45L44.41 9.45L44.41 9.45Q44.41 8.96 44.29 8.58L44.29 8.58L44.29 8.58Q44.16 8.20 43.94 7.95L43.94 7.95L43.94 7.95Q43.72 7.70 43.43 7.57L43.43 7.57L43.43 7.57Q43.14 7.44 42.81 7.44L42.81 7.44L42.81 7.44Q42.43 7.44 42.11 7.59L42.11 7.59L42.11 7.59Q41.79 7.75 41.55 8.02L41.55 8.02L41.55 8.02Q41.31 8.29 41.17 8.65L41.17 8.65L41.17 8.65Q41.04 9.02 41.04 9.45L41.04 9.45ZM52.03 4.83L52.03 13.64L50.33 13.64L50.33 4.83L47.08 4.83L47.30 3.63L55.38 3.63L55.15 4.83L52.03 4.83ZM59.55 12.58L59.55 12.58L59.55 12.58Q59.37 12.73 59.12 12.94L59.12 12.94L59.12 12.94Q58.87 13.15 58.57 13.33L58.57 13.33L58.57 13.33Q58.26 13.52 57.90 13.65L57.90 13.65L57.90 13.65Q57.54 13.78 57.15 13.78L57.15 13.78L57.15 13.78Q56.75 13.78 56.40 13.63L56.40 13.63L56.40 13.63Q56.05 13.49 55.80 13.22L55.80 13.22L55.80 13.22Q55.54 12.96 55.40 12.60L55.40 12.60L55.40 12.60Q55.25 12.23 55.25 11.79L55.25 11.79L55.25 11.79Q55.25 11.32 55.44 10.88L55.44 10.88L55.44 10.88Q55.62 10.43 56.06 10.08L56.06 10.08L56.06 10.08Q56.51 9.73 57.23 9.52L57.23 9.52L57.23 9.52Q57.96 9.30 59.02 9.30L59.02 9.30L59.52 9.30L59.52 8.74L59.52 8.74Q59.52 8.44 59.42 8.20L59.42 8.20L59.42 8.20Q59.32 7.96 59.13 7.79L59.13 7.79L59.13 7.79Q58.95 7.62 58.69 7.53L58.69 7.53L58.69 7.53Q58.43 7.44 58.12 7.44L58.12 7.44L58.12 7.44Q57.87 7.44 57.59 7.50L57.59 7.50L57.59 7.50Q57.31 7.56 57.04 7.66L57.04 7.66L57.04 7.66Q56.77 7.77 56.51 7.91L56.51 7.91L56.51 7.91Q56.25 8.05 56.04 8.21L56.04 8.21L55.92 8.14L55.60 6.99L55.60 6.99Q56.43 6.56 57.14 6.41L57.14 6.41L57.14 6.41Q57.85 6.26 58.47 6.26L58.47 6.26L58.47 6.26Q59.12 6.26 59.62 6.39L59.62 6.39L59.62 6.39Q60.12 6.52 60.47 6.79L60.47 6.79L60.47 6.79Q60.82 7.06 61.00 7.48L61.00 7.48L61.00 7.48Q61.18 7.89 61.18 8.46L61.18 8.46L61.18 11.81L61.18 11.81Q61.18 11.91 61.20 12.03L61.20 12.03L61.20 12.03Q61.22 12.15 61.27 12.26L61.27 12.26L61.27 12.26Q61.32 12.37 61.42 12.45L61.42 12.45L61.42 12.45Q61.52 12.52 61.68 12.52L61.68 12.52L61.68 12.52Q61.78 12.52 61.91 12.50L61.91 12.50L61.91 12.50Q62.05 12.47 62.19 12.41L62.19 12.41L62.19 13.23L62.19 13.23Q61.82 13.48 61.45 13.63L61.45 13.63L61.45 13.63Q61.09 13.78 60.74 13.78L60.74 13.78L60.74 13.78Q60.46 13.78 60.27 13.68L60.27 13.68L60.27 13.68Q60.07 13.58 59.93 13.41L59.93 13.41L59.93 13.41Q59.79 13.24 59.70 13.03L59.70 13.03L59.70 13.03Q59.61 12.81 59.55 12.58ZM59.52 11.70L59.52 10.11L59.09 10.11L59.09 10.11Q58.38 10.11 57.94 10.21L57.94 10.21L57.94 10.21Q57.51 10.31 57.27 10.48L57.27 10.48L57.27 10.48Q57.03 10.66 56.95 10.89L56.95 10.89L56.95 10.89Q56.88 11.12 56.88 11.38L56.88 11.38L56.88 11.38Q56.88 11.66 56.96 11.87L56.96 11.87L56.96 11.87Q57.04 12.09 57.18 12.23L57.18 12.23L57.18 12.23Q57.32 12.37 57.51 12.45L57.51 12.45L57.51 12.45Q57.70 12.52 57.92 12.52L57.92 12.52L57.92 12.52Q58.08 12.52 58.26 12.49L58.26 12.49L58.26 12.49Q58.44 12.45 58.64 12.35L58.64 12.35L58.64 12.35Q58.83 12.26 59.05 12.10L59.05 12.10L59.05 12.10Q59.27 11.94 59.52 11.70L59.52 11.70ZM63.27 13.30L63.57 12.06L63.69 11.98L63.69 11.98Q63.96 12.13 64.25 12.24L64.25 12.24L64.25 12.24Q64.54 12.36 64.83 12.44L64.83 12.44L64.83 12.44Q65.11 12.52 65.39 12.56L65.39 12.56L65.39 12.56Q65.66 12.60 65.90 12.60L65.90 12.60L65.90 12.60Q66.52 12.60 66.87 12.34L66.87 12.34L66.87 12.34Q67.22 12.08 67.22 11.68L67.22 11.68L67.22 11.68Q67.22 11.40 67.06 11.22L67.06 11.22L67.06 11.22Q66.90 11.05 66.64 10.92L66.64 10.92L66.64 10.92Q66.38 10.79 66.04 10.70L66.04 10.70L66.04 10.70Q65.71 10.60 65.35 10.50L65.35 10.50L65.35 10.50Q65.00 10.39 64.67 10.25L64.67 10.25L64.67 10.25Q64.33 10.12 64.07 9.91L64.07 9.91L64.07 9.91Q63.81 9.69 63.65 9.39L63.65 9.39L63.65 9.39Q63.49 9.08 63.49 8.64L63.49 8.64L63.49 8.64Q63.49 8.14 63.70 7.70L63.70 7.70L63.70 7.70Q63.92 7.27 64.32 6.95L64.32 6.95L64.32 6.95Q64.72 6.63 65.29 6.45L65.29 6.45L65.29 6.45Q65.86 6.26 66.57 6.26L66.57 6.26L66.57 6.26Q66.75 6.26 66.98 6.28L66.98 6.28L66.98 6.28Q67.22 6.29 67.47 6.32L67.47 6.32L67.47 6.32Q67.73 6.35 67.99 6.40L67.99 6.40L67.99 6.40Q68.25 6.45 68.48 6.52L68.48 6.52L68.17 7.75L68.02 7.83L68.02 7.83Q67.82 7.73 67.58 7.66L67.58 7.66L67.58 7.66Q67.35 7.58 67.11 7.54L67.11 7.54L67.11 7.54Q66.88 7.49 66.65 7.47L66.65 7.47L66.65 7.47Q66.43 7.44 66.26 7.44L66.26 7.44L66.26 7.44Q65.66 7.44 65.32 7.68L65.32 7.68L65.32 7.68Q64.98 7.92 64.98 8.33L64.98 8.33L64.98 8.33Q64.98 8.61 65.15 8.79L65.15 8.79L65.15 8.79Q65.31 8.97 65.57 9.10L65.57 9.10L65.57 9.10Q65.84 9.22 66.18 9.31L66.18 9.31L66.18 9.31Q66.52 9.41 66.87 9.51L66.87 9.51L66.87 9.51Q67.22 9.62 67.57 9.75L67.57 9.75L67.57 9.75Q67.91 9.89 68.17 10.10L68.17 10.10L68.17 10.10Q68.43 10.32 68.60 10.62L68.60 10.62L68.60 10.62Q68.76 10.93 68.76 11.38L68.76 11.38L68.76 11.38Q68.76 11.89 68.54 12.33L68.54 12.33L68.54 12.33Q68.33 12.77 67.92 13.09L67.92 13.09L67.92 13.09Q67.52 13.41 66.95 13.60L66.95 13.60L66.95 13.60Q66.38 13.78 65.69 13.78L65.69 13.78L65.69 13.78Q65.13 13.78 64.49 13.66L64.49 13.66L64.49 13.66Q63.85 13.54 63.27 13.30L63.27 13.30ZM70.59 13.64L70.59 2.69L72.24 2.69L72.24 13.64L70.59 13.64ZM77.35 13.64L75.35 13.64L72.65 9.82L75.46 6.42L77.14 6.42L74.29 9.62L77.35 13.64ZM78.36 13.30L78.65 12.06L78.78 11.98L78.78 11.98Q79.04 12.13 79.33 12.24L79.33 12.24L79.33 12.24Q79.63 12.36 79.91 12.44L79.91 12.44L79.91 12.44Q80.20 12.52 80.47 12.56L80.47 12.56L80.47 12.56Q80.75 12.60 80.99 12.60L80.99 12.60L80.99 12.60Q81.61 12.60 81.96 12.34L81.96 12.34L81.96 12.34Q82.31 12.08 82.31 11.68L82.31 11.68L82.31 11.68Q82.31 11.40 82.15 11.22L82.15 11.22L82.15 11.22Q81.99 11.05 81.73 10.92L81.73 10.92L81.73 10.92Q81.46 10.79 81.13 10.70L81.13 10.70L81.13 10.70Q80.79 10.60 80.44 10.50L80.44 10.50L80.44 10.50Q80.09 10.39 79.75 10.25L79.75 10.25L79.75 10.25Q79.42 10.12 79.16 9.91L79.16 9.91L79.16 9.91Q78.89 9.69 78.73 9.39L78.73 9.39L78.73 9.39Q78.57 9.08 78.57 8.64L78.57 8.64L78.57 8.64Q78.57 8.14 78.79 7.70L78.79 7.70L78.79 7.70Q79.00 7.27 79.40 6.95L79.40 6.95L79.40 6.95Q79.80 6.63 80.37 6.45L80.37 6.45L80.37 6.45Q80.94 6.26 81.66 6.26L81.66 6.26L81.66 6.26Q81.83 6.26 82.07 6.28L82.07 6.28L82.07 6.28Q82.30 6.29 82.56 6.32L82.56 6.32L82.56 6.32Q82.82 6.35 83.08 6.40L83.08 6.40L83.08 6.40Q83.34 6.45 83.56 6.52L83.56 6.52L83.26 7.75L83.11 7.83L83.11 7.83Q82.91 7.73 82.67 7.66L82.67 7.66L82.67 7.66Q82.43 7.58 82.20 7.54L82.20 7.54L82.20 7.54Q81.96 7.49 81.74 7.47L81.74 7.47L81.74 7.47Q81.52 7.44 81.35 7.44L81.35 7.44L81.35 7.44Q80.75 7.44 80.41 7.68L80.41 7.68L80.41 7.68Q80.07 7.92 80.07 8.33L80.07 8.33L80.07 8.33Q80.07 8.61 80.23 8.79L80.23 8.79L80.23 8.79Q80.40 8.97 80.66 9.10L80.66 9.10L80.66 9.10Q80.92 9.22 81.27 9.31L81.27 9.31L81.27 9.31Q81.61 9.41 81.96 9.51L81.96 9.51L81.96 9.51Q82.31 9.62 82.65 9.75L82.65 9.75L82.65 9.75Q83.00 9.89 83.26 10.10L83.26 10.10L83.26 10.10Q83.52 10.32 83.69 10.62L83.69 10.62L83.69 10.62Q83.85 10.93 83.85 11.38L83.85 11.38L83.85 11.38Q83.85 11.89 83.63 12.33L83.63 12.33L83.63 12.33Q83.41 12.77 83.01 13.09L83.01 13.09L83.01 13.09Q82.61 13.41 82.04 13.60L82.04 13.60L82.04 13.60Q81.47 13.78 80.78 13.78L80.78 13.78L80.78 13.78Q80.21 13.78 79.58 13.66L79.58 13.66L79.58 13.66Q78.94 13.54 78.36 13.30L78.36 13.30Z"></path></g><!----><g data-v-423bf9ae="" id="03265366-19b7-43d3-92a9-0ed037d7cc4d" transform="matrix(6.398863049235772,0,0,6.398863049235772,0.6203883561483394,-56.24964055386212)" stroke="none" fill="white"><path d="M14.438 8.937L8 15.375l-1.938-1.938-2.125 2.125 3 3L8 19.625l1.063-1.063 7.5-7.5-2.125-2.125zM1.5 10c-.372 0-.773.148-1.063.438-.29.29-.438.69-.438 1.063v10c0 .372.148.773.438 1.063.29.29.69.438 1.063.438h10c.372 0 .773-.148 1.063-.438.29-.29.438-.69.438-1.063v-4l-2 2v1.5h-9v-9h6.594l2-2H1.501zM17 13v2h15v-2H17zm0 5v2h12v-2H17z"></path></g><!----></svg>